<?xml version="1.0" encoding="UTF-8"?>
<svg width="24px" height="24px" viewBox="0 0 24 24" version="1.1" xmlns="http://www.w3.org/2000/svg" xmlns:xlink="http://www.w3.org/1999/xlink">
    <title>atoms/icons/home/especializado</title>
    <defs>
        <path d="M6.59525441,15.0810248 L6.71618686,14.1566791 C7.00334307,14.1941935 7.29423465,14.2130672 7.58746082,14.2130672 L7.58746082,15.1451022 C7.25361255,15.1451022 6.9225658,15.1236654 6.59525441,15.0810248 Z M3.78182394,14.1249899 L4.25084574,13.3192457 C4.50251598,13.4651091 4.76352464,13.594196 5.03223748,13.7060402 L4.67340895,14.5665415 C4.36664207,14.4390857 4.06874668,14.2915912 3.78182394,14.1249899 Z M1.55391198,12.1649204 L2.29608238,11.5991751 C2.47281185,11.8300868 2.66448278,12.049348 2.86992787,12.2555608 L2.20783437,12.9128784 C1.97390712,12.6780056 1.75538824,12.4282202 1.55391198,12.1649204 Z M0.243732588,9.48345577 L1.14745754,9.24904898 C1.22076408,9.53052354 1.31274745,9.80640589 1.42224035,10.075065 L0.557503275,10.4266752 C0.432368537,10.1200357 0.327544847,9.80500784 0.243732588,9.48345577 Z M0.0695711793,6.54218643 L0.99500794,6.66777814 C0.955786604,6.95414589 0.935242094,7.24447478 0.933841332,7.53713376 L0,7.53224057 C0.00163422233,7.19903807 0.0249802556,6.86863168 0.0695711793,6.54218643 Z M1.04193347,3.7397903 L1.84713816,4.21209902 C1.69959122,4.46258341 1.56861998,4.72238816 1.45539172,4.99034821 L0.595090389,4.6275536 C0.724427414,4.32207914 0.873842027,4.02545902 1.04193347,3.7397903 Z M3.01794173,1.52644026 L3.58081459,2.27020417 C3.3482881,2.44542674 3.12766808,2.63556187 2.91988839,2.83967753 L2.26479869,2.17536961 C2.50152747,1.94305989 2.75296425,1.72612876 3.01794173,1.52644026 Z M5.71160705,0.232775733 L5.94179894,1.13615062 C5.65931193,1.20791732 5.38242798,1.2980917 5.11278129,1.40597475 L4.76515886,0.540813289 C5.07309304,0.417784673 5.38919833,0.31479481 5.71160705,0.232775733 Z M8.65927721,0.0745627972 L8.52853943,0.997510422 C8.24161668,0.956966901 7.95095856,0.935064079 7.65773239,0.932034965 L7.66730426,0 C8.00115254,0.00349513112 8.33243275,0.0284270664 8.65927721,0.0745627972 Z M11.4619685,1.06018977 L10.9845421,1.86104082 C10.7345061,1.71261425 10.4746648,1.58049829 10.2071192,1.466091 L10.5750527,0.609317859 C10.8804188,0.740035763 11.17668,0.890792418 11.4619685,1.06018977 Z M13.6691025,3.04379319 L12.9210956,3.60161612 C12.7469342,3.36884038 12.5573644,3.14771509 12.3542539,2.93940527 L13.0231178,2.28907788 C13.2547104,2.52628077 13.4706612,2.77839623 13.6691025,3.04379319 Z M14.9510332,5.73947132 L14.0447402,5.96432475 C13.9744686,5.68191816 13.8855202,5.40510377 13.7788289,5.13527965 L14.6475348,4.79322282 C14.7691676,5.10102737 14.8707228,5.41722023 14.9510332,5.73947132 Z M15.0939109,8.68120668 L14.1701084,8.5458286 C14.2121312,8.25969386 14.2357107,7.96983099 14.2401465,7.67740502 L15.1739878,7.69185156 C15.1686182,8.02482105 15.1420037,8.35522745 15.0939109,8.68120668 Z M14.0914322,11.4740495 L13.2915971,10.9931194 C13.4417121,10.7444991 13.5752514,10.4858594 13.6915147,10.2195304 L14.5478472,10.5914123 C14.4152417,10.8954887 14.2627921,11.1902448 14.0914322,11.4740495 Z M12.092078,13.6666617 L11.5371427,12.9170726 C11.7713035,12.7441801 11.9940246,12.5563751 12.2039055,12.3545895 L12.8517579,13.0258877 C12.612928,13.2556343 12.3591566,13.4697693 12.092078,13.6666617 Z M9.38440501,14.9314332 L9.16378499,14.0257282 C9.44720584,13.9569906 9.72525709,13.8698453 9.99607108,13.7647584 L10.3341216,14.633648 C10.0250202,14.7534145 9.70774757,14.8529092 9.38440501,14.9314332 Z" id="path-1"></path>
        <path d="M0.703439513,4.0444038 L2.98714849,6.33860787 L2.98691503,6.33860787 C3.42722122,6.77969342 4.02231161,7.02738171 4.64284917,7.02738171 C5.26315328,7.02738171 5.85847713,6.77969342 6.29854986,6.33860787 L8.58225883,4.04650088 L8.58202537,4.04650088 C9.17174618,3.44999851 9.40100422,2.58134192 9.18365265,1.7679084 C8.96630108,0.954241877 8.3352578,0.319992083 7.52795197,0.103060944 C6.7208796,-0.113637185 5.86034481,0.120070582 5.27085747,0.716805969 L4.64284917,1.34476453 L4.01507434,0.714941899 C3.5792039,0.262671932 2.98201236,0.00519727295 2.35680559,7.10806367e-05 C1.73159882,-0.00482210293 1.13043846,0.243099198 0.687564211,0.688145894 C0.244689959,1.1334256 -0.00277799411,1.73901532 -3.55271368e-15,2.36976998 C0.00305851422,3.00029163 0.256362976,3.60355127 0.703439513,4.04463681 L0.703439513,4.0444038 Z M1.24693517,1.26577456 C1.54272941,0.969853462 1.9424135,0.80371823 2.3591402,0.80371823 C2.77563343,0.80371823 3.17531752,0.969853462 3.47111176,1.26577456 L4.64284917,2.44176968 L5.81482005,1.26577456 C6.11038083,0.969853462 6.51006492,0.80371823 6.92655815,0.80371823 C7.34305139,0.80371823 7.74273548,0.969853462 8.03852972,1.26577456 C8.33268974,1.56053062 8.49797965,1.96130566 8.49797965,2.37932334 C8.49797965,2.79757403 8.33268974,3.19834906 8.03852972,3.49310512 L5.75482074,5.78730919 C5.4590265,6.08299728 5.05934241,6.2486665 4.64284917,6.2486665 C4.22635594,6.2486665 3.82643839,6.08299728 3.53064415,5.78730919 L1.24693517,3.49543521 C0.95300861,3.20067915 0.787485233,2.79990412 0.787485233,2.38165343 C0.787485233,1.96340274 0.952775149,1.56239469 1.24693517,1.26763863 L1.24693517,1.26577456 Z" id="path-3"></path>
    </defs>
    <g id="atoms/icons/home/especializado" stroke="none" stroke-width="1" fill="none" fill-rule="evenodd">
        <g id="Group-10" transform="translate(1.000000, 0.000000)">
            <g id="Group-80" transform="translate(3.397248, 1.165044)">
                <mask id="mask-2" fill="white">
                    <use xlink:href="#path-1"></use>
                </mask>
                <g id="Clip-79"></g>
                <polygon id="Fill-78" fill="#005F71" mask="url(#mask-2)" points="-0.233460333 15.3781109 15.4073548 15.3781109 15.4073548 -0.233008741 -0.233460333 -0.233008741"></polygon>
            </g>
            <path d="M11.0713221,0 C15.9430058,0 19.8921539,3.94160667 19.8921539,8.80390908 C19.8921539,10.5687848 19.3670554,12.2337719 18.4484861,13.6315256 L18.3662572,13.75404 L21.9519839,19.9529589 C22.097535,20.2045751 21.8908821,20.5029175 21.6177038,20.4762015 L21.5881932,20.4720783 L21.5582515,20.4653658 L17.0763888,19.2691239 L15.8737634,23.7410163 C15.7986636,24.0201931 15.4443833,24.0858922 15.2692923,23.8780016 L15.2499108,23.8527966 L15.2322762,23.8251428 L11.625557,17.5902959 L11.5996747,17.5923077 L11.4239918,17.6009308 L11.2478626,17.6061121 L11.0713221,17.6078415 C10.8386058,17.6078415 10.6079943,17.5988472 10.3798175,17.581188 L6.76771896,23.8251512 C6.61733317,24.0851085 6.2356985,24.0450431 6.13611468,23.7722778 L6.12623659,23.7410163 L4.92337772,19.2691239 L0.441748494,20.4653658 C0.160524125,20.5404156 -0.0745804483,20.2638509 0.0221133626,20.0074564 L0.0337560643,19.9800797 L0.048016122,19.9529589 L3.69969838,13.6404702 C2.78344576,12.2527448 2.25025691,10.5904727 2.25025691,8.80390908 C2.25025691,3.94164814 6.19959694,0 11.0713221,0 Z M11.0713221,0.699026224 C6.5864046,0.699026224 2.95063791,4.32771175 2.95063791,8.80390908 C2.95063791,13.2801263 6.58640113,16.9088152 11.0713221,16.9088152 C11.3320059,16.9088152 11.5912818,16.8965636 11.8466244,16.8724809 L12.0373544,16.8522071 L12.1954157,16.8317308 C12.6090394,16.7781473 12.7260073,17.3268969 12.4135129,17.4864561 L12.3824354,17.5003545 L15.4162524,22.7453813 L16.4909415,18.7509005 C16.5351595,18.586524 16.6897269,18.4811136 16.8537417,18.4928142 L16.8866407,18.4967331 L16.9196123,18.5038782 L20.9228813,19.5720352 L17.9110095,14.3656879 L17.9082425,14.3694512 C17.649038,14.6861913 17.3688133,14.9838061 17.0699303,15.2604164 L16.940702,15.3776723 L16.8357022,15.469603 L16.7181592,15.5689517 L16.6348053,15.6374791 L16.5505659,15.705024 L16.465449,15.7715766 L16.3460025,15.86221 L16.2049097,15.9651817 L16.0622787,16.0650263 L15.8913308,16.1793003 L15.753847,16.267092 L15.6611795,16.3242708 L15.5677118,16.3803589 L15.4734515,16.4353465 L15.3496734,16.5053407 L15.2267936,16.5721652 C14.9093701,16.7415388 14.5808529,16.891874 14.2428605,17.021883 L14.0730821,17.0851877 L13.9399693,17.1320597 L13.8595368,17.1587967 C13.4282114,17.302176 13.2059297,16.6761247 13.6064449,16.5075413 L13.6361178,16.4962942 L13.7418196,16.4604226 C13.8889454,16.409308 14.0339564,16.3542036 14.1767409,16.2952514 L14.318779,16.2350217 L14.4217114,16.1892143 L14.5087921,16.1493698 L14.5983028,16.1069927 L14.6901015,16.0621077 L14.7602289,16.0265742 L14.8498776,15.9804385 L14.9822496,15.9091378 L15.081565,15.8541249 L15.2119746,15.7781869 L15.3156091,15.716069 L15.3733646,15.6803526 L15.430812,15.6441598 L15.5537605,15.5642849 L15.6574618,15.4946712 C15.7570612,15.4265682 15.8551304,15.3562616 15.9515948,15.2838098 L16.0950787,15.1735305 L16.2095506,15.0817238 L16.3056693,15.0021738 L16.419198,14.9044041 L16.5195007,14.8157188 L16.5933342,14.7481548 L16.6771716,14.6690653 L16.7656531,14.5835511 L16.8095891,14.5402564 C18.2443467,13.1090756 19.1293372,11.156171 19.188596,9.03186883 L19.1910967,8.90912527 L19.1917729,8.80390908 C19.1917729,4.32766432 15.5561922,0.699026224 11.0713221,0.699026224 Z M4.08875703,14.3654549 L1.07688527,19.5720352 L5.08038774,18.5038782 C5.24512801,18.4599143 5.41387447,18.5408141 5.48572514,18.6884326 L5.49877343,18.7188286 L5.50905846,18.7509005 L6.58328069,22.7451483 L9.61172813,17.5103739 L9.54536613,17.5004365 C7.46715206,17.1738748 5.59093894,16.1153191 4.2344089,14.5394541 L4.15200807,14.442328 L4.08875703,14.3654549 Z" id="Stroke-81" fill="#005F71" fill-rule="nonzero"></path>
            <g id="Group-84" transform="translate(6.314544, 5.941652)">
                <mask id="mask-4" fill="white">
                    <use xlink:href="#path-3"></use>
                </mask>
                <g id="Clip-83"></g>
                <polygon id="Fill-82" fill="#FFB718" mask="url(#mask-4)" points="-0.236238327 7.26039045 9.63458129 7.26039045 9.63458129 -0.346645927 -0.236238327 -0.346645927"></polygon>
            </g>
        </g>
    </g>
</svg>